<?xml version="1.0" standalone="no"?>
<!DOCTYPE svg PUBLIC "-//W3C//DTD SVG 1.1//EN" "http://www.w3.org/Graphics/SVG/1.1/DTD/svg11.dtd" >
<!--
2013-9-30: Created.
-->
<svg>
<metadata>
Created by iconfont
</metadata>
<defs>

<font id="iconfont" horiz-adv-x="1024" >
  <font-face
    font-family="iconfont"
    font-weight="500"
    font-stretch="normal"
    units-per-em="1024"
    ascent="896"
    descent="-128"
  />
    <missing-glyph />
    
    <glyph glyph-name="x" unicode="x" horiz-adv-x="1001"
d="M281 543q-27 -1 -53 -1h-83q-18 0 -36.5 -6t-32.5 -18.5t-23 -32t-9 -45.5v-76h912v41q0 16 -0.5 30t-0.5 18q0 13 -5 29t-17 29.5t-31.5 22.5t-49.5 9h-133v-97h-438v97zM955 310v-52q0 -23 0.5 -52t0.5 -58t-10.5 -47.5t-26 -30t-33 -16t-31.5 -4.5q-14 -1 -29.5 -0.5
t-29.5 0.5h-32l-45 128h-439l-44 -128h-29h-34q-20 0 -45 1q-25 0 -41 9.5t-25.5 23t-13.5 29.5t-4 30v167h911zM163 247q-12 0 -21 -8.5t-9 -21.5t9 -21.5t21 -8.5q13 0 22 8.5t9 21.5t-9 21.5t-22 8.5zM316 123q-8 -26 -14 -48q-5 -19 -10.5 -37t-7.5 -25t-3 -15t1 -14.5
t9.5 -10.5t21.5 -4h37h67h81h80h64h36q23 0 34 12t2 38q-5 13 -9.5 30.5t-9.5 34.5q-5 19 -11 39h-368zM336 498v228q0 11 2.5 23t10 21.5t20.5 15.5t34 6h188q31 0 51.5 -14.5t20.5 -52.5v-227h-327z" />
    

    
    <glyph glyph-name="shoujichongzhi" unicode="&#58887;" d="M772.839215 832.055642 250.9858 832.055642c-51.463092 0-93.188402-41.726334-93.188402-93.188402l0-708.231243c0-51.470255 41.726334-93.187379 93.188402-93.187379l521.854439 0c51.452859 0 93.188402 41.718147 93.188402 93.187379L866.028641 738.86724C866.028641 790.329309 824.293097 832.055642 772.839215 832.055642zM456.00008 776.142192l111.823831 0c10.29446 0 18.638499-8.345062 18.638499-18.637476s-8.344039-18.637476-18.638499-18.637476L456.00008 738.86724c-10.29446 0-18.637476 8.345062-18.637476 18.637476S445.70562 776.142192 456.00008 776.142192zM511.912507-6.637931c-30.879288 0-55.912427 25.036209-55.912427 55.912427 0 30.878265 25.03314 55.915497 55.912427 55.915497 30.888498 0 55.912427-25.037233 55.912427-55.915497C567.824935 18.398278 542.799982-6.637931 511.912507-6.637931zM754.200716 179.738873 269.623275 179.738873 269.623275 682.953789 754.200716 682.953789 754.200716 179.738873z"  horiz-adv-x="1024" />

    
    <glyph glyph-name="dianhua" unicode="&#58921;" d="M89.472 588.832c0 0 75.008 159.424 201.792 0 126.528-159.616 0-206.4 0-206.4S206.912 302.624 272.448 250.976c65.664-51.456 225.28-192.256 225.28-192.256s63.232-84.288 131.2-23.36c84.48 70.144 117.312 81.984 182.912 32.768 114.496-85.376 150.272-171.264-23.232-239.232-192.384-93.824-534.784 229.888-534.784 229.888S-84.032 382.432 89.472 588.832zM525.76 506.336c0 0-63.232-6.72-51.712 59.2C479.36 595.488 530.368 605.344 577.28 591.072c47.168-14.016 222.912-91.392 230.016-288.512 0 0-12.992-55.296-54.208-44.352-44.288 11.776-32.64 95.616-35.136 111.936C715.712 386.528 654.848 513.312 525.76 506.336zM647.616 677.536c0 0-77.376-8.064-63.104 72.256 6.336 36.864 68.928 48.896 126.528 31.68 57.408-17.28 272.704-112 281.216-353.152 0 0-18.432-75.264-65.792-54.72-41.408 18.24-43.52 120-46.272 140.096C877.056 533.792 805.888 686.176 647.616 677.536z"  horiz-adv-x="1024" />

    
    <glyph glyph-name="top" unicode="&#58981;" d="M132.34 763.073h759.123c19.017 0 34.434 15.416 34.434 34.434s-15.416 34.434-34.434 34.434l-759.123-0c-19.017 0-34.434-15.416-34.434-34.434s15.417-34.434 34.434-34.434zM846.957 373.125l-310.705 310.704c-0.401 0.401-0.814 0.793-1.235 1.174-0.203 0.184-0.412 0.357-0.618 0.535-0.218 0.188-0.433 0.38-0.656 0.563-0.263 0.217-0.532 0.422-0.8 0.629-0.172 0.133-0.342 0.27-0.517 0.4-0.296 0.22-0.597 0.429-0.898 0.639-0.157 0.108-0.31 0.22-0.469 0.326-0.311 0.209-0.627 0.407-0.943 0.605-0.158 0.098-0.314 0.2-0.474 0.296-0.312 0.188-0.627 0.365-0.945 0.543-0.176 0.098-0.351 0.2-0.528 0.295-0.299 0.161-0.601 0.312-0.904 0.463-0.206 0.102-0.41 0.208-0.619 0.306-0.275 0.131-0.554 0.254-0.832 0.377-0.244 0.107-0.487 0.217-0.734 0.319-0.248 0.102-0.496 0.197-0.746 0.294-0.282 0.109-0.565 0.219-0.851 0.321-0.219 0.078-0.44 0.15-0.661 0.223-0.318 0.106-0.638 0.213-0.96 0.31-0.195 0.058-0.392 0.112-0.588 0.167-0.347 0.098-0.694 0.194-1.045 0.281-0.183 0.046-0.368 0.085-0.552 0.128-0.361 0.084-0.723 0.166-1.089 0.238-0.188 0.037-0.377 0.067-0.565 0.101-0.36 0.064-0.72 0.13-1.085 0.183-0.216 0.032-0.432 0.054-0.648 0.082-0.337 0.043-0.671 0.088-1.011 0.121-0.289 0.029-0.577 0.045-0.866 0.065-0.27 0.019-0.538 0.045-0.81 0.058-0.567 0.028-1.135 0.043-1.702 0.043-0.568 0-1.135-0.015-1.702-0.043-0.272-0.013-0.541-0.039-0.811-0.058-0.289-0.021-0.577-0.038-0.865-0.065-0.34-0.033-0.675-0.079-1.012-0.122-0.216-0.028-0.432-0.050-0.647-0.082-0.364-0.053-0.725-0.119-1.086-0.183-0.188-0.034-0.377-0.063-0.564-0.1-0.365-0.072-0.728-0.155-1.089-0.238-0.184-0.043-0.368-0.082-0.552-0.128-0.351-0.087-0.698-0.184-1.045-0.281-0.196-0.055-0.393-0.108-0.588-0.167-0.322-0.097-0.642-0.204-0.96-0.31-0.22-0.074-0.441-0.145-0.66-0.223-0.287-0.102-0.569-0.212-0.851-0.321-0.25-0.096-0.498-0.192-0.746-0.294-0.248-0.102-0.491-0.212-0.736-0.319-0.277-0.123-0.555-0.246-0.83-0.376-0.209-0.099-0.414-0.204-0.621-0.307-0.216-0.107-0.434-0.208-0.648-0.32-0.086-0.045-0.169-0.096-0.254-0.142-0.178-0.095-0.353-0.196-0.529-0.295-0.316-0.177-0.631-0.355-0.943-0.542-0.161-0.096-0.317-0.199-0.476-0.298-0.050-0.032-0.101-0.062-0.151-0.094-0.265-0.168-0.53-0.335-0.791-0.51-0.158-0.105-0.311-0.217-0.467-0.325-0.302-0.21-0.604-0.42-0.901-0.641-0.174-0.129-0.342-0.265-0.513-0.397-0.269-0.209-0.54-0.414-0.804-0.632-0.222-0.182-0.436-0.374-0.653-0.561-0.117-0.1-0.234-0.199-0.35-0.301-0.090-0.080-0.181-0.156-0.27-0.236-0.421-0.382-0.832-0.772-1.234-1.173v0l-310.706-310.706c-13.447-13.447-13.447-35.25 0-48.697 13.447-13.447 35.25-13.447 48.697 0l251.925 251.925 0-606.402c0-19.017 15.416-34.434 34.434-34.434 19.017 0 34.434 15.416 34.434 34.434l-0 606.403 251.925-251.925c13.447-13.447 35.25-13.447 48.697 0 13.444 13.448 13.444 35.251-0.003 48.698z"  horiz-adv-x="1024" />

    
    <glyph glyph-name="weixin" unicode="&#59029;" d="M506.942 550.079c25.259 0 42.134 16.916 42.134 42.107 0 25.477-16.848 41.956-42.134 41.956-25.299 0-50.668-16.48-50.668-41.956 0.028-25.204 25.409-42.107 50.668-42.107v0zM506.942 550.079zM271.257 634.143c-25.259 0-50.79-16.48-50.79-41.956 0-25.19 25.532-42.107 50.79-42.107 25.163 0 42.012 16.916 42.012 42.107-0.014 25.477-16.834 41.956-42.012 41.956v0zM271.257 634.143zM1010.654 280.508c0 133.202-123.563 246.702-275.237 258.512 0.205 1.652 0.301 3.373-0.068 5.092-30.406 141.79-182.886 248.695-354.7 248.695-194.15 0-352.119-135.387-352.119-301.793 0-89.279 45.574-169.725 131.946-233.158l-30.106-90.508c-1.939-5.885-0.177-12.37 4.506-16.452 2.853-2.458 6.445-3.741 10.076-3.741 2.335 0 4.697 0.546 6.867 1.625l113.036 56.565 13.926-2.827c34.802-7.154 64.853-13.353 101.868-13.353 10.895 0 40.878 3.987 43.404 7.182 40.755-101.99 153.094-175.61 285.273-175.61 33.86 0 68.13 8.164 98.891 15.866l87.136-47.636c2.307-1.257 4.847-1.911 7.359-1.911 3.441 0 6.881 1.161 9.639 3.413 4.847 3.932 6.841 10.404 5.038 16.33l-22.255 74.001c74.602 58.955 115.521 129.488 115.521 199.708v0zM409.798 230.25c-9.626-0.833-19.388-1.243-29.082-1.243-32.686 0-60.334 5.652-92.31 12.26l-18.582 3.755c-3.195 0.683-6.567 0.245-9.503-1.269l-81.687-40.892 21.231 63.775c2.076 6.24-0.205 13.053-5.57 16.821-82.070 57.207-123.659 126.894-123.659 207.093 0 144.179 139.087 261.516 310.067 261.516 151.142 0 284.959-91.955 312.579-214.261-158.475-2.076-286.706-113.487-286.706-250.32 0-19.893 3.018-39.171 8.11-57.767-1.542 0.382-3.168 0.683-4.887 0.532v0zM860.371 107.301c-4.875-3.673-6.935-10.007-5.188-15.852l13.804-45.903-56.647 30.993c-2.157 1.188-4.588 1.803-7.004 1.803-1.188 0-2.389-0.15-3.564-0.464-30.379-7.674-61.822-15.593-92.433-15.593-142.186 0-257.857 97.717-257.857 217.811 0 120.095 115.658 217.771 257.857 217.771 139.469 0 257.325-99.724 257.325-217.771 0-59.87-37.738-121.255-106.291-172.797v0zM868.181 98.822zM616.454 389.994c-16.848 0-33.696-16.971-33.696-33.792 0-16.944 16.848-33.669 33.696-33.669 25.313 0 42.038 16.725 42.038 33.669 0 16.848-16.725 33.792-42.038 33.792v0zM616.454 389.994zM801.58 389.994c-16.603 0-33.451-16.971-33.451-33.792 0-16.944 16.848-33.669 33.451-33.669 25.231 0 42.257 16.725 42.257 33.669 0 16.848-16.998 33.792-42.257 33.792v0zM801.58 389.994z"  horiz-adv-x="1024" />

    
    <glyph glyph-name="bi" unicode="&#58888;" d="M79.36-20.48h343.04v-51.2H79.36zM550.4-20.48h376.32v-51.2H550.4zM629.76 737.28l215.04-215.04L373.76 51.2l-215.04 215.04L629.76 737.28z m0 0M716.8 821.76l215.04-215.04-64-64-215.04 215.04L716.8 821.76z m0 0M138.24 243.2l215.04-215.04L51.2-56.32l87.04 299.52z m0 0M798.72 824.32L931.84 691.2c23.04-23.04 20.48-58.88-2.56-81.92-23.04-23.04-61.44-25.6-81.92-2.56l-133.12 133.12c-23.04 20.48-23.04 58.88 2.56 81.92 23.04 23.04 58.88 25.6 81.92 2.56z m0 0"  horiz-adv-x="1024" />

    
    <glyph glyph-name="qq" unicode="&#58883;" d="M110.08 87.591c22.43-7.581 46.927-2.973 68.962 13.135 0.572-0.886 1.123-1.752 1.694-2.619-37.632-22.961-58.624-55.02-58.624-90.762 0-73.511 86.469-126.858 205.627-126.858 63.193 0 121.758 16.404 159.39 44.288 12.229-0.689 23.138-0.689 35.505-0.02 37.632-27.864 96.177-44.268 159.37-44.268 119.138 0 205.646 53.347 205.646 126.858 0 35.663-20.913 67.624-58.387 90.605a99.888 99.888 0 0 1 1.713 2.638c21.977-15.99 46.316-20.618 68.766-13.016 67.17 22.823 70.833 140.012 40.192 238.69-16.266 52.342-46.16 93.361-71.07 120.655 0.295 3.78 0.453 7.542 0.453 11.343 0 28.947-7.582 57.029-22.528 83.672v0.374c0 190.327-153.265 345.187-341.642 345.187-188.396 0-341.661-154.86-341.661-345.187v-1.22c-14.632-26.388-22.056-54.213-22.056-82.807 0-3.446 0.118-6.931 0.394-10.476-25.226-27.451-55.473-68.785-71.857-121.54-30.661-98.718-26.998-215.868 40.113-238.672z m7.956 223.725c15.242 49.132 45.45 86.96 68.096 110.02a25.196 25.196 0 0 1 6.892 21.564c-0.827 5.317-1.26 10.397-1.26 15.34 0 21.681 6.301 43.047 18.688 63.429a25.488 25.488 0 0 1 3.623 14.828 79.882 79.882 0 0 0-0.236 5.79c0 162.56 130.678 294.813 291.288 294.813s291.289-132.253 291.289-294.813c0-1.753-0.079-3.446-0.197-5.16a25.277 25.277 0 0 1 3.683-14.828c12.642-20.559 19.042-42.102 19.042-64.04 0-5.159-0.453-10.377-1.359-15.93-1.339-7.917 1.221-15.951 6.833-21.721 22.37-22.902 52.264-60.475 67.407-109.292 26.959-86.784 17.507-167.286-8.211-176.03-13.332-4.51-29.125 9.708-38.952 21.445-5.336 6.42-13.41 9.807-21.937 8.881a25.137 25.137 0 0 1-19.594-13.233 324.714 324.714 0 0 0-31.252-47.97 25.242 25.242 0 0 1-4.549-21.918 25.215 25.215 0 0 1 14.69-16.876c35.152-14.651 55.277-35.88 55.277-58.25 0-42.181-69.651-76.485-155.274-76.485-55.512 0-107.185 14.828-134.813 38.715a25.174 25.174 0 0 1-16.463 6.124c-0.61 0-1.26-0.02-1.87-0.078-17.389-1.3-30.957-1.28-47.853 0.02-6.932 0.61-13.351-1.675-18.393-6.046-27.667-23.907-79.34-38.735-134.872-38.735-85.603 0-155.254 34.304-155.254 76.485 0 22.45 20.243 43.737 55.512 58.368 7.286 3.033 12.721 9.236 14.71 16.876a25.113 25.113 0 0 1-4.51 21.918c-11.874 15.183-22.37 31.35-31.231 48.049a25.163 25.163 0 0 1-19.633 13.253c-8.468 0.886-16.581-2.462-21.957-8.881-9.886-11.835-25.522-26.349-39.11-21.622-25.776 8.704-35.19 89.186-8.25 175.99z"  horiz-adv-x="1024" />

    
    <glyph glyph-name="weixin3" unicode="&#59186;" d="M498.816 550.94272c26.33728 0 43.93472 17.62816 43.93472 43.904 0 26.56256-17.56672 43.74528-43.93472 43.74528-26.368 0-52.82816-17.18272-52.82816-43.74528 0.0256-26.27072 26.49088-43.904 52.82816-43.904zM253.08672 638.592c-26.33728 0-52.96128-17.18272-52.96128-43.74528 0-26.27072 26.624-43.904 52.96128-43.904 26.24 0 43.80672 17.62816 43.80672 43.904-0.03072 26.56256-17.56672 43.74528-43.80672 43.74528zM1024 269.89056c0 138.88-128.82944 257.21344-286.976 269.53728 0.22528 1.72544 0.32256 3.52256-0.06656 5.30944-31.70816 147.84-190.68928 259.29728-369.82272 259.29728C164.70528 804.03456 0 662.88128 0 489.37472 0 396.288 47.51872 312.41728 137.56928 246.272l-31.39072-94.36672a16.07168 16.07168 0 0 1 4.70528-17.15712c2.97472-2.56 6.72256-3.90144 10.496-3.90144a16.2304 16.2304 0 0 1 7.168 1.69472l117.85728 58.97728 14.52544-2.944c36.28544-7.45472 67.61984-13.92128 106.20928-13.92128a406.7328 406.7328 0 0 1 34.176 1.47456 15.6672 15.6672 0 0 1 11.07456 6.016c42.496-106.33728 159.616-183.10656 297.44128-183.10656 35.29728 0 71.04 8.50944 103.10656 16.54272l90.84416-49.664a16.0768 16.0768 0 0 1 7.68-1.98656c3.584 0 7.168 1.21344 10.05056 3.55328a15.93856 15.93856 0 0 1 5.24288 17.01888l-23.19872 77.15328C981.34528 123.136 1024 196.66944 1024 269.89056zM398.592 208.03072a367.43168 367.43168 0 0 0-31.42656-1.34144c-35.328 0-65.21344 6.10816-99.77344 13.24544l-20.096 4.06528a15.44192 15.44192 0 0 1-10.27072-1.37728L148.736 178.432l22.94272 68.93056a16.01536 16.01536 0 0 1-6.016 18.176C76.95872 327.35744 32 402.688 32 489.37472c0 155.84256 150.33344 282.65984 335.13472 282.65984 163.35872 0 307.99872-99.39456 337.85344-231.58272-171.29472-2.24256-309.88288-122.65472-309.88288-270.55616 0-21.504 3.26144-42.3424 8.76544-62.43328-1.664 0.4096-3.42528 0.72704-5.27872 0.56832z m476.86144-127.58016a16.0256 16.0256 0 0 1-5.69344-17.3824l15.13472-50.33472-62.11072 33.98656a15.8976 15.8976 0 0 1-7.68 1.98656c-1.31584 0-2.62656-0.15872-3.90656-0.51712-33.31072-8.41728-67.77344-17.08544-101.34528-17.08544-155.904 0-282.72128 107.136-282.72128 238.81728s126.81728 238.78656 282.72128 238.78656c152.92928 0 282.14272-109.34272 282.14272-238.78656 0.00512-65.664-41.3696-132.96128-116.54144-189.47072z m-262.46144 303.58016c-17.56672 0-35.13344-17.69984-35.13344-35.23072 0-17.664 17.57184-35.10272 35.13344-35.10272 26.39872 0 43.84256 17.43872 43.84256 35.10272-0.00512 17.57184-17.44384 35.23072-43.84256 35.23072z m193.024 0c-17.31072 0-34.88256-17.69984-34.88256-35.23072 0-17.664 17.57184-35.10272 34.88256-35.10272 26.30656 0 44.06272 17.43872 44.06272 35.10272 0 17.57184-17.73056 35.23072-44.06272 35.23072z"  horiz-adv-x="1024" />

    
    <glyph glyph-name="youjian" unicode="&#59803;" d="M102.4 793.6h819.2c55.9 0 101.7-45.4 102.4-101.2L512.3 406.5 0.5 692.1C1 748 46.4 793.6 102.4 793.6zM0.5 582.6L0 76.8c0-56.3 46.1-102.4 102.4-102.4h819.2c56.3 0 102.4 46.1 102.4 102.4V582.9L524.3 310.3c-7.6-4.2-16.9-4.2-24.5 0L0.5 582.6z"  horiz-adv-x="1024" />

    
    <glyph glyph-name="pingtai" unicode="&#59152;" d="M412.16 343.04H161.28c-33.28 0-58.88-25.6-58.88-58.88v-250.88C102.4 0 128-25.6 161.28-25.6h250.88c33.28 0 58.88 25.6 58.88 58.88v250.88c0 33.28-25.6 58.88-58.88 58.88z m7.68-309.76s-2.56-7.68-7.68-7.68H161.28c-5.12 0-7.68 2.56-7.68 7.68v250.88c0 5.12 2.56 7.68 7.68 7.68h250.88c5.12 0 7.68-2.56 7.68-7.68v-250.88zM412.16 793.6H161.28C128 793.6 102.4 768 102.4 734.72v-250.88c0-33.28 25.6-58.88 58.88-58.88h250.88c33.28 0 58.88 25.6 58.88 58.88V734.72c0 33.28-25.6 58.88-58.88 58.88z m7.68-309.76c0-5.12-2.56-7.68-7.68-7.68H161.28c-5.12 0-7.68 2.56-7.68 7.68V734.72c0 5.12 2.56 7.68 7.68 7.68h250.88c5.12 0 7.68-2.56 7.68-7.68v-250.88zM862.72 793.6h-250.88c-33.28 0-58.88-25.6-58.88-58.88V384c0-33.28 25.6-58.88 58.88-58.88h250.88c33.28 0 58.88 25.6 58.88 58.88V734.72C921.6 768 896 793.6 862.72 793.6z m7.68-409.6c0-5.12-2.56-7.68-7.68-7.68h-250.88c-5.12 0-7.68 2.56-7.68 7.68V734.72c0 5.12 2.56 7.68 7.68 7.68h250.88c5.12 0 7.68-2.56 7.68-7.68V384zM862.72 243.2h-250.88c-33.28 0-58.88-25.6-58.88-58.88v-151.04c0-33.28 25.6-58.88 58.88-58.88h250.88c33.28 0 58.88 25.6 58.88 58.88v151.04c0 30.72-25.6 58.88-58.88 58.88z m7.68-209.92c0-5.12-2.56-7.68-7.68-7.68h-250.88c-5.12 0-7.68 2.56-7.68 7.68v151.04c0 5.12 2.56 7.68 7.68 7.68h250.88c5.12 0 7.68-2.56 7.68-7.68v-151.04z"  horiz-adv-x="1024" />

    
    <glyph glyph-name="yingjianpeitao" unicode="&#58889;" d="M355.83-110.493h496.577v993.155h-496.577v-993.155zM666.225 758.448h124.075v-124.075h-124.075v124.075zM666.225 510.159h124.075v-124.075h-124.075v124.075zM666.225 261.87h124.075v-124.075h-124.075v124.075zM417.936 758.448h124.075v-124.075h-124.075v124.075zM417.936 510.159h124.075v-124.075h-124.075v124.075zM417.936 261.87h124.075v-124.075h-124.075v124.075zM914.514 572.266h434.471v-62.107h-434.471v62.107zM914.514-110.493h124.075v248.289h186.182v-248.289h124.075v558.684h-434.332v-558.684z"  horiz-adv-x="1654" />

    
    <glyph glyph-name="icglobaltitlebar48iconfontmap" unicode="&#58880;" d="M511.872 125.611c-0.043 0-0.085 0-0.128 0-9.259 0.021-18.091 4.075-24.128 11.115-9.216 10.731-19.285 22.208-29.909 34.325-94.699 107.947-222.507 248.661-222.507 381.056 0 153.621 124.971 278.592 278.592 278.592s278.571-124.971 278.571-278.592c0-135.061-134.549-277.781-231.381-387.2-8.789-9.92-17.173-19.413-25.003-28.373-6.080-6.955-14.869-10.923-24.107-10.923zM513.792 766.699c-118.315 0-214.592-96.256-214.592-214.592 0-146.283 151.957-271.573 214.827-349.291 62.336 81.259 214.315 202.325 214.315 349.291 0.021 118.336-96.235 214.592-214.549 214.592zM513.792 446.421c-67.051 0-121.579 54.549-121.579 121.6s54.549 121.6 121.579 121.6c67.072 0 121.6-54.549 121.6-121.6s-54.528-121.6-121.6-121.6zM513.792 625.621c-31.744 0-57.579-25.835-57.579-57.6s25.835-57.579 57.579-57.579c31.765 0 57.6 25.813 57.6 57.579s-25.835 57.6-57.6 57.6zM930.539-44.416h-837.077c-11.029 0-21.269 5.696-27.115 15.019-5.845 9.344-6.485 21.035-1.664 30.955l123.52 255.637c5.355 11.029 16.533 18.027 28.8 18.027h71.787c17.664 0 32-14.336 32-32 0-17.685-14.336-32-32-32l-51.776-0-92.437-191.637h736.96l-83.627 191.659h-62.208c-17.664 0-32 14.315-32 32 0 17.664 14.336 32 32 32h83.115c12.693 0 24.192-7.531 29.291-19.115l111.723-255.659c4.352-9.899 3.413-21.312-2.496-30.357-5.888-9.067-15.979-14.528-26.795-14.528z"  horiz-adv-x="1024" />

    
    <glyph glyph-name="anquan" unicode="&#58885;" d="M502.528-127.616c-16.384 0-32.064 5.184-45.312 14.848L242.56 45.12a484.096 484.096 0 0 0-196.544 388.48v264.32c0 33.28 21.248 62.528 52.928 72.64L471.232 891.008a101.76 101.76 0 0 0 62.656 0l372.224-120.448c31.616-10.176 52.928-39.36 52.928-72.64v-264.32a483.776 483.776 0 0 0-196.544-388.48L547.84-112.768a76.48 76.48 0 0 0-45.312-14.848z m0 972.928a50.304 50.304 0 0 1-15.744-2.496L114.496 722.368a25.6 25.6 0 0 1-17.728-24.448v-264.32a432.64 432.64 0 0 1 175.872-347.584l214.72-157.888a25.92 25.92 0 0 1 30.464 0l214.592 157.888a432.832 432.832 0 0 1 175.936 347.584v264.32a25.472 25.472 0 0 1-17.728 24.384L518.272 842.816a52.928 52.928 0 0 1-15.744 2.496zM730.752 460.288H274.24a25.344 25.344 0 1 0 0 50.688h456.512c14.08 0 25.344-11.328 25.344-25.344a25.28 25.28 0 0 0-25.344-25.344zM502.528 155.968a25.344 25.344 0 0 0-25.344 25.344V688.576a25.344 25.344 0 1 0 50.688 0v-507.264a25.216 25.216 0 0 0-25.344-25.344z"  horiz-adv-x="1024" />

    
    <glyph glyph-name="tiaoyan" unicode="&#58933;" d="M148.138667 754.346667l698.026666 0.341333V257.706667h47.786667V754.688c0 26.282667-21.504 47.445333-48.128 47.445333H148.138667c-26.282667 0-48.128-21.162667-48.128-47.445333v-729.429333c0-26.282667 21.504-47.445333 48.128-47.445334h416.426666v47.786667l-416.426666-0.341333V754.346667zM705.877333 592.896H362.837333c-13.312 0-23.893333-10.581333-23.893333-23.893333s10.581333-23.893333 23.893333-23.893334h343.04c13.312 0 23.893333 10.581333 23.893334 23.893334s-10.581333 23.893333-23.893334 23.893333zM729.770667 389.802667c0 13.312-10.581333 23.893333-23.893334 23.893333H362.837333c-13.312 0-23.893333-10.581333-23.893333-23.893333s10.581333-23.893333 23.893333-23.893334h343.04c13.312 0 23.893333 10.922667 23.893334 23.893334zM243.712 569.002667a30.037333 29.696 90 1 1 59.392 0 30.037333 29.696 90 1 1-59.392 0ZM243.712 389.802667a30.037333 29.696 90 1 1 59.392 0 30.037333 29.696 90 1 1-59.392 0ZM243.712 210.602667a30.037333 29.696 90 1 1 59.392 0 30.037333 29.696 90 1 1-59.392 0ZM362.837333 234.496c-13.312 0-23.893333-10.581333-23.893333-23.893333s10.581333-23.893333 23.893333-23.893334H512c13.312 0 23.893333 10.581333 23.893333 23.893334s-10.581333 23.893333-23.893333 23.893333h-149.162667zM915.456 198.997333c-9.898667 8.533333-24.917333 7.509333-33.792-2.389333l-136.874667-159.061333-66.218666 69.973333c-8.874667 9.557333-24.234667 9.898667-33.792 1.024-9.557333-8.874667-9.898667-24.234667-1.024-33.792l102.741333-108.885333 171.690667 199.338666c8.533333 9.898667 7.168 24.917333-2.730667 33.792z"  horiz-adv-x="1024" />

    
    <glyph glyph-name="diqiu" unicode="&#58899;" d="M512 832C264.6 832 64 631.4 64 384s200.6-448 448-448 448 200.6 448 448S759.4 832 512 832z m0-224c-29.5 0-58.3 2.6-86.2 7.5C452 720.7 491.4 776 512 776c20.6 0 60-55.3 86.2-160.5-27.9-4.8-56.7-7.5-86.2-7.5z m140.7 20.4c-13.6 55.7-31.8 102.6-53.1 137.4 63.6-14.6 121.3-44.7 169-86.1-35.3-21.8-74.3-39.1-115.9-51.3z m-281.4 0c-41.6 12.2-80.5 29.6-115.8 51.3 47.7 41.4 105.3 71.4 168.9 86-21.3-34.7-39.4-81.6-53.1-137.3zM679.5 412c-1.3 57.5-6.7 111.9-15.4 161.4 52.5 15 101.3 37.3 144.8 65.8 53.4-62 87.5-140.7 93.7-227.2H679.5z m-558.1 0c6.2 86.4 40.2 165.1 93.5 227.1 43.5-28.5 92.4-50.6 145-65.6-8.7-49.6-14.1-104-15.4-161.5H121.4z m279.1 0c1.3 55.7 6.4 105.4 13.9 148.7 31.6-5.6 64.1-8.7 97.6-8.7 33.4 0 66 3 97.6 8.6 7.5-43.3 12.5-93 13.9-148.6h-223z m408.4-283.2c-43.5 28.5-92.3 50.8-144.8 65.8 8.7 49.6 14.1 104 15.4 161.4h223.1c-6.2-86.5-40.3-165.2-93.7-227.2z m-394.5 78.5c-7.5 43.3-12.5 93-13.9 148.7h222.9c-1.3-55.6-6.3-105.3-13.9-148.6C578 213 545.4 216 512 216c-33.4 0-66-3.1-97.6-8.7zM215 128.9c-53.3 62-87.4 140.7-93.5 227.1h223.1c1.3-57.5 6.7-111.9 15.4-161.5-52.6-15-101.5-37.1-145-65.6zM512-8c-20.6 0-60 55.3-86.2 160.5 27.9 4.8 56.7 7.5 86.2 7.5s58.3-2.7 86.2-7.5C572 47.3 532.6-8 512-8z m87.6 10.2c21.3 34.8 39.5 81.7 53.1 137.4 41.7-12.2 80.6-29.5 115.9-51.2-47.7-41.5-105.4-71.6-169-86.2z m-175.2 0c-63.6 14.6-121.2 44.6-168.9 86 35.2 21.8 74.1 39.1 115.8 51.3 13.7-55.6 31.8-102.5 53.1-137.3z"  horiz-adv-x="1024" />

    
    <glyph glyph-name="pingtai1" unicode="&#59085;" d="M522.416275 836.707355L945.477308 618.766823 522.416275 388.00626 76.920188 618.766823 522.416275 836.707355m0 59.292645c-4.807512 0-12.820031-3.205008-17.627543-4.807512L22.435055 655.624413c-12.820031-4.807512-22.435055-20.832551-22.435055-36.85759 0-16.025039 8.01252-30.447574 22.435055-35.255086L501.583725 335.123631c4.807512-3.205008 12.820031-4.807512 17.627543-4.807512 8.01252 0 12.820031 3.205008 20.83255 4.807512l458.316119 248.388106c12.820031 8.01252 20.832551 20.832551 20.832551 35.255086s-8.01252 28.84507-22.435055 35.255086L540.043818 891.192488c-4.807512 1.602504-12.820031 4.807512-17.627543 4.807512z m4.807512-804.456964c-9.615023 0-20.832551 3.205008-30.447574 8.01252L16.025039 365.571205c-12.820031 8.01252-17.627543 25.640063-9.615023 38.460094 8.01252 12.820031 22.435055 17.627543 38.460094 12.820031l482.353677-266.015649h8.01252l450.303599 256.400626c8.01252 3.205008 16.025039 4.807512 20.832551 3.205008 8.01252-3.205008 12.820031-8.01252 17.627543-12.820032 3.205008-8.01252 4.807512-16.025039 3.205008-20.832551-3.205008-8.01252-8.01252-12.820031-12.820031-17.627543L560.876369 101.158059c-12.820031-6.410016-22.435055-9.615023-33.652582-9.615023z m0-219.543036c-9.615023 0-20.832551 3.205008-30.447574 8.01252L16.025039 146.028169c-8.01252 3.205008-12.820031 9.615023-12.820031 17.627543-3.205008 8.01252-3.205008 16.025039 0 20.832551 8.01252 12.820031 25.640063 17.627543 38.460094 9.615023l482.353677-266.015649h8.01252l450.303599 256.400626c8.01252 3.205008 16.025039 4.807512 20.832551 3.205008 8.01252-3.205008 12.820031-8.01252 17.627543-12.820032s4.807512-12.820031 4.807512-20.83255c-3.205008-8.01252-8.01252-12.820031-12.820031-17.627543L560.876369-121.589984c-12.820031-4.807512-22.435055-6.410016-33.652582-6.410016z"  horiz-adv-x="1027" />

    
    <glyph glyph-name="jiguangIM" unicode="&#58890;" d="M597.333333 170.666667h85.333334V512H256v-85.333333H85.333333v-341.333334h163.328L341.333333-7.338667 434.005333 85.333333H597.333333v85.333334zM0 512h682.666667v-512h-213.333334l-128-128-128 128H0V512z m426.666667-42.666667h163.328L682.666667 376.661333 775.338667 469.333333H938.666667V810.666667H426.666667v-341.333334zM341.333333 896h682.666667v-512h-213.333333l-128-128-128 128H341.333333V896z"  horiz-adv-x="1024" />

    
    <glyph glyph-name="jiguang" unicode="&#58891;" d="M188.01593-12.442351l72.857127 72.857126a409.648537 409.648537 0 0 1 658.325321 368.637604l87.500231 87.551431a511.791873 511.791873 0 0 0-132.607138-494.639985c-187.74918-187.74918-484.963248-199.166705-686.075541-34.406176zM17.418639 251.389534a511.791873 511.791873 0 0 0 132.607138 494.639985c187.74918 187.74918 484.963248 199.166705 686.075541 34.406176L763.244191 707.578569a409.648537 409.648537 0 0 1-658.325321-368.637604L17.469839 251.389534z m458.44182 24.012644l362.032847 361.981647h144.792659l-361.981647-361.981647h-144.895058zM41.431283 130.558319l361.981647 362.032847h144.895058l-362.084046-361.981647H41.431283z"  horiz-adv-x="1024" />

    
    <glyph glyph-name="gouwu" unicode="&#58894;" d="M441.051429 86.204082l-8.756245-49.46547c11.284898-12.308898 18.348408-28.525714 18.348408-46.477061a69.088653 69.088653 0 0 0-69.005061-69.005061 69.088653 69.088653 0 0 0-69.005062 69.005061c0 24.576 12.998531 46.038204 32.412735 58.26351l9.00702 51.2c-48.984816-12.350694-85.430857-56.696163-85.430857-109.46351a113.141551 113.141551 0 0 1 113.016164-113.016163 113.141551 113.141551 0 0 1 113.016163 113.016163 112.911673 112.911673 0 0 1-53.603265 95.921633M973.385143 86.22498l-8.714449-49.486368c11.284898-12.308898 18.348408-28.525714 18.348408-46.477061a69.088653 69.088653 0 0 0-69.005061-69.005061 69.088653 69.088653 0 0 0-69.046857 69.005061c0 24.576 13.040327 46.038204 32.433632 58.26351l9.027919 51.2c-49.026612-12.350694-85.430857-56.696163-85.430857-109.46351a113.141551 113.141551 0 0 1 113.016163-113.016163 113.141551 113.141551 0 0 1 112.974367 113.016163 112.890776 112.890776 0 0 1-53.603265 95.963429M1024.626939 442.806857h-102.692572l8.860735 101.208816h112.577306l-18.766367-101.208816z m-28.379429-153.28653c-2.507755-13.437388-16.676571-25.286531-30.364734-25.286531h-59.559184l11.765551 134.582857h98.40849l-20.271021-109.296326z m-118.491428 153.28653h-124.844409l3.510858 101.208816h130.194285l-8.839836-101.208816z m-15.610776-178.552163h-115.482122l4.722938 134.582857h122.524735l-11.765551-134.582857z m-153.265633 178.552163h-116.401632l-8.839837 101.208816h128.794123l-3.552654-101.208816z m-6.227591-178.552163h-94.563266l-11.765551 134.582857h111.030857l-4.70204-134.582857z m-264.923429 0l-23.740082 134.582857h138.156409l11.765551-134.582857h-126.181878z m-49.319184 279.760979h151.029551l8.860735-101.208816H406.256327l-17.846858 101.208816z m-71.26204-279.760979c-2.298776 0-4.660245 0.417959-7.021715 1.044898l-35.777306 133.537959h94.960327l23.740081-134.582857h-75.901387z m-81.711021 279.760979h108.293225l17.825959-101.208816h-98.972735l-27.146449 101.208816z m816.065306 44.011103H223.649959L156.483918 838.739592A22.047347 22.047347 0 0 1 148.020245 881.099755h-109.714286a22.026449 22.026449 0 1 1 0-44.052898h72.515919l175.647346-655.46449a22.235429 22.235429 0 0 1 6.039511-43.61404h90.655347l-24.095347-136.568164a22.005551 22.005551 0 1 1 43.342367-7.648653l25.39102 144.216817h487.695674l-24.074449-136.568164a22.026449 22.026449 0 0 1 43.321469-7.648653l25.432817 144.216817h43.572245a22.277224 22.277224 0 0 1 0 44.554449h-671.451429l-10.114612 37.720816H965.903673c34.941388 0 67.270531 26.937469 73.644409 61.293714l50.573061 273.282612s5.433469 33.227755-38.619429 33.227755z"  horiz-adv-x="1107" />

    
    <glyph glyph-name="yiliao" unicode="&#58906;" d="M0 486.912V612.790857c0 43.958857 33.938286 79.579429 75.849143 79.579429H196.754286v59.245714C196.754286 831.341714 258.340571 896 334.336 896h492.397714c75.995429 0 137.581714-64.658286 137.581715-144.384v-59.245714h130.121142c41.837714 0 75.849143-35.620571 75.849143-79.579429v-125.878857H0z m909.165714 260.900571c0 48.420571-37.449143 87.698286-83.602285 87.698286H337.846857c-46.153143 0-83.602286-39.277714-83.602286-87.698286v-55.442285h654.921143v55.442285zM1170.285714-48.347429c0-44.032-34.011429-79.652571-75.849143-79.652571H75.849143C33.938286-128 0-92.379429 0-48.347429V439.296h1170.285714v-487.643429z m-437.394285 246.857143h-109.714286V309.174857h-73.142857v-110.665143h-109.714286v-76.8h109.714286v-119.588571h73.142857v119.588571h109.714286v76.8z"  horiz-adv-x="1170" />

    
    <glyph glyph-name="jiguangtongji" unicode="&#58948;" d="M658.832918-82.034913c-61.286783-28.089776-127.680798-45.965087-199.182045-45.965087-252.80798 0-459.650873 206.842893-459.650873 459.650873C0 530.832918 127.680798 701.925187 306.433915 765.765586v-109.805486c-107.25187-51.072319-183.860349-150.663342-201.735661-273.236908H408.578554V896h51.072319c311.541147 0 561.795511-250.254364 561.795511-561.795511 0-150.663342-58.733167-293.665835-163.431421-398.36409l-35.750624-35.750623-377.935162 377.935162-2.553616 2.553616h-331.970075c25.53616-173.645885 173.645885-306.433915 354.952619-306.433916 40.857855 0 81.715711 7.660848 120.01995 20.428928l74.054863-76.608479z m-148.109726 434.114713l308.987531-308.987531c63.840399 81.715711 99.591022 181.306733 99.591023 286.004988 0 237.486284-178.753117 431.561097-408.578554 457.097257v-434.114714z"  horiz-adv-x="1024" />

    
    <glyph glyph-name="jiguangduanxin" unicode="&#58952;" d="M186.176 896v-93.12h744.704v-651.648H488.704l-116.352-93.056H1024V896zM93.12 67.52V896H0v-1024l232.704 186.176 116.416 93.056H200.128zM232.704 523.648h93.12v-93.12H232.704zM698.176 523.648h93.056v-93.12h-93.056zM465.472 523.648h93.056v-93.12H465.472z"  horiz-adv-x="1024" />

    
    <glyph glyph-name="jiguangfenxiang" unicode="&#58953;" d="M554.624 362.688V448H469.312v-85.312L358.4 268.8l55.488-64 102.4 85.312L618.624 204.8l55.488 64-119.488 93.888zM512 512a171.2 171.2 0 0 0-170.688 170.688C341.312 776.576 418.112 853.376 512 853.376s170.624-76.8 170.624-170.688A171.136 171.136 0 0 0 512 512z m0 85.312c46.912 0 85.376 38.4 85.376 85.312C597.376 729.6 558.912 768 512 768s-85.312-38.4-85.312-85.312 38.4-85.376 85.312-85.376zM170.688-85.376A171.264 171.264 0 0 0 0 85.376C0 179.2 76.8 256 170.688 256c93.888 0 170.688-76.8 170.688-170.624a171.328 171.328 0 0 0-170.688-170.752z m0 85.376C217.6 0 256 38.4 256 85.376c0 46.848-38.4 85.248-85.312 85.248s-85.312-38.4-85.312-85.248A85.504 85.504 0 0 1 170.688 0z m682.688-85.376a171.264 171.264 0 0 0-170.752 170.752A171.2 171.2 0 0 0 853.376 256C947.2 256 1024 179.2 1024 85.376c0-93.888-76.8-170.752-170.624-170.752z m0 85.376c46.848 0 85.248 38.4 85.248 85.376 0 46.848-38.4 85.248-85.248 85.248-46.976 0-85.376-38.4-85.376-85.248C768 38.4 806.4 0 853.376 0z"  horiz-adv-x="1024" />

    
    <glyph glyph-name="qq1" unicode="&#59283;" d="M110.617663 82.629779c22.766174-7.713876 47.682677-3.037765 70.073397 13.345688l1.70661-2.662311c-38.228059-23.346422-59.560681-55.942669-59.560681-92.293457C122.836989-73.695677 210.69326-127.965868 331.79429-127.965868c64.168528 0 123.695077 16.690644 161.957268 45.054498 12.424119-0.716776 23.517083-0.716776 36.077731-0.034132 38.228059-28.329722 97.720476-45.020366 161.923136-45.020366 121.066898 0 208.991434 54.270191 208.991433 129.0197 0 36.248392-21.264358 68.742242-59.355888 92.122795 0.61438 0.853305 1.194627 1.774874 1.740742 2.662312 22.356588-16.246925 47.10243-20.957168 69.902737-13.243292 68.264391 23.209893 71.950668 142.365388 40.822106 242.714043-16.519983 53.246225-46.897637 94.955768-72.223726 122.705243 0.341322 3.822806 0.477851 7.645612 0.477851 11.536682 0 29.421953-7.713876 57.9906-22.868571 85.057431v0.375455C859.204976 738.51405 703.425636 896 512.012283 896 320.59893 896 164.887854 738.548182 164.887854 544.984501v-1.22876a172.09453 172.09453 0 0 1-22.424853-84.204126c0-3.481484 0.102397-7.031232 0.409586-10.649245-25.633279-27.920136-56.386387-69.971001-73.042898-123.558548-31.128562-100.416919-27.408153-219.538282 40.787974-242.714043z m8.055198 227.491084c15.496017 49.969534 46.214993 88.402387 69.220092 111.885337a25.599147 25.599147 0 0 1 6.997101 21.912869 101.372621 101.372621 0 0 0-1.297024 15.598414c0 22.049398 6.416853 43.757475 19.011633 64.509849a25.940469 25.940469 0 0 1 3.686277 15.052299 81.268758 81.268758 0 0 0-0.238925 5.90487c0 165.302223 132.774241 299.783074 295.9944 299.783073 163.186027 0 295.960268-134.480851 295.960268-299.783073 0-1.774874-0.068264-3.515616-0.170661-5.256359-0.341322-5.29049 0.955701-10.580981 3.754542-15.08643 12.833706-20.888904 19.318823-42.801773 19.318822-65.090097 0-5.256358-0.443719-10.580981-1.365288-16.212793a25.565014 25.565014 0 0 1 6.928836-22.083531c22.732042-23.278157 53.109696-61.506216 68.503317-111.134428 27.374021-88.231726 17.782874-170.114863-8.362388-178.989234-13.516349-4.607846-29.592614 9.864205-39.593347 21.810473a25.530882 25.530882 0 0 1-42.187394-4.437185 330.19486 330.19486 0 0 0-31.742942-48.80904 25.667411 25.667411 0 0 1 10.307923-39.422686c35.702277-14.881637 56.181594-36.487317 56.181594-59.219359 0-42.90417-70.790174-77.787274-157.79314-77.787274-56.420519 0-108.915836 15.08643-137.006633 39.388553a25.599147 25.599147 0 0 1-18.602047 6.143796 298.554315 298.554315 0 0 0-48.638378 0 24.848238 24.848238 0 0 1-18.704444-6.143796c-28.090797-24.302123-80.620246-39.388554-137.040765-39.388553-86.968834 0-157.759008 34.883104-157.759008 77.787274 0 22.834439 20.581714 44.474251 56.420519 59.355888a25.565014 25.565014 0 0 1 10.376188 39.456818 332.68651 332.68651 0 0 0-31.742942 48.809039 25.599147 25.599147 0 0 1-42.28979 4.471318c-10.034866-12.014533-25.940469-26.793774-39.729876-21.981134-26.179394 8.874371-35.770541 90.689244-8.39652 178.955102z"  horiz-adv-x="1024" />

    
    <glyph glyph-name="baogao" unicode="&#58931;" d="M782.908486 599.53411c0 18.742097-15.334443 34.076539-34.076539 34.076539H275.168053c-18.742097 0-34.076539-15.334443-34.076539-34.076539v-3.407654c0-18.742097 15.334443-34.076539 34.076539-34.076539H750.535774c18.742097 0 34.076539 15.334443 34.076539 34.076539v3.407654h-1.703827zM782.908486 430.855241c0 18.742097-15.334443 34.076539-34.076539 34.076539H275.168053c-18.742097 0-34.076539-15.334443-34.076539-34.076539v-3.407654c0-18.742097 15.334443-34.076539 34.076539-34.076539H750.535774c18.742097 0 34.076539 15.334443 34.076539 34.076539v3.407654h-1.703827zM748.831947 280.918469H275.168053c-18.742097 0-34.076539-15.334443-34.076539-34.076539v-3.407654c0-18.742097 15.334443-34.076539 34.076539-34.076539H750.535774c18.742097 0 34.076539 15.334443 34.076539 34.076539V246.84193c-1.703827 18.742097-17.03827 34.076539-35.780366 34.076539zM409.770383 824.439268h204.459234c18.742097 0 34.076539 15.334443 34.076539 34.076539V860.219634c0 18.742097-15.334443 34.076539-34.076539 34.076539H409.770383c-18.742097 0-34.076539-15.334443-34.076539-34.076539v-1.703827c0-18.742097 15.334443-34.076539 34.076539-34.076539zM752.239601 894.296173h115.860233zM914.103161 894.296173H869.803661c18.742097 0 34.076539-13.630616 34.076539-32.372712 0 17.03827-15.334443 32.372712-34.076539 32.372712h-115.860233c-17.03827 0-32.372712-11.926789-34.076539-28.965058v-8.519135c1.703827-11.926789 10.222962-22.14975 22.14975-27.261231 1.703827 0 3.407654-1.703827 5.111481-1.703827-1.703827 0-3.407654 0-5.111481 1.703827 1.703827 0 3.407654-1.703827 5.111481-1.703827h6.815308-6.815308H876.618968h-3.407654 42.595674c5.111481 0 8.519135-3.407654 8.519135-8.519135v-870.655574c0-5.111481-3.407654-8.519135-8.519135-8.519135H109.896839c-5.111481 0-8.519135 3.407654-8.519135 8.519135V819.327787c0 5.111481 3.407654 8.519135 8.519135 8.519135H137.15807c-17.03827 0-34.076539 15.334443-34.076539 34.076539 0-18.742097 17.03827-34.076539 35.780366-34.076539h115.860233c18.742097 0 34.076539 13.630616 34.076539 32.372712v1.703827 1.703827c0 17.03827-15.334443 32.372712-34.076539 32.372712H138.861897L137.15807 894.296173H109.896839C69.004992 894.296173 34.928453 860.219634 34.928453 819.327787v-870.655574C34.928453-93.923461 69.004992-128 109.896839-128h804.206322c40.891847 0 74.968386 34.076539 74.968386 74.968386V819.327787C989.071547 860.219634 954.995008 894.296173 914.103161 894.296173z m-32.372712-63.041597c1.703827 0 1.703827 1.703827 3.407654 1.703827-1.703827-1.703827-1.703827-1.703827-3.407654-1.703827z m-5.111481-1.703827c1.703827 0 3.407654 0 5.111481 1.703827-3.407654-1.703827-5.111481-1.703827-5.111481-1.703827zM718.163062 865.331115v-10.222962 10.222962zM718.163062 856.81198c1.703827-11.926789 10.222962-22.14975 22.14975-27.261231-11.926789 5.111481-20.445923 15.334443-22.14975 27.261231z"  horiz-adv-x="1024" />

    
    <glyph glyph-name="xinwen" unicode="&#58900;" d="M93.676-125.871H21.293c-12.773 0-21.289 8.515-21.289 21.289V666.079c0 12.773 8.516 21.289 21.29 21.289h70.253c12.773 0 21.289-8.516 21.289-21.289v-770.661c2.129-12.774-8.516-21.29-19.16-21.29zM979.298 896H195.863c-23.418 0-42.578-19.16-42.578-42.578v-938.844c0-23.418 19.16-42.578 42.578-42.578h785.563c23.418 0 42.578 19.16 42.578 42.578V853.422C1021.876 876.84 1004.844 896 979.298 896z m-504.55-172.44H625.9v-38.32H513.07v-57.481H625.9v-38.32H513.07v-57.48H625.9v-38.32H474.75v229.92z m-227.791 0h57.48l76.64-151.153V723.56h57.48v-227.792h-57.48l-76.64 155.41 2.129-155.41h-57.48V723.56zM510.94 42.311H246.957v57.48H510.94v-57.48z m0 151.152H246.957v57.48H510.94v-57.48z m0 151.151H246.957v57.48H510.94v-57.48z m378.944-302.303H587.58V402.096h302.304v-359.784z m0 453.455h-57.48l-40.45 172.44-36.19-172.44h-57.481L664.221 723.56h38.32l38.32-170.312 38.32 170.312h38.32l38.32-170.312 38.32 170.312h38.32l-42.577-227.792z"  horiz-adv-x="1026" />

    
    <glyph glyph-name="bangong" unicode="&#59082;" d="M512 576c-70.4 0-128-57.6-128-128s57.6-128 128-128 128 57.6 128 128-57.6 128-128 128z m0-192c-38.4 0-64 25.6-64 64s25.6 64 64 64 64-25.6 64-64-25.6-64-64-64zM896 704h-134.4c-25.6 108.8-128 192-249.6 192S294.4 812.8 262.4 704H128C57.6 704 0 646.4 0 576v-576c0-70.4 57.6-128 128-128h768c70.4 0 128 57.6 128 128V576c0 70.4-57.6 128-128 128zM512 832c83.2 0 153.6-51.2 179.2-128H332.8C358.4 780.8 428.8 832 512 832z m384-896H128c-32 0-64 32-64 64v211.2c19.2-12.8 38.4-19.2 64-19.2h768c25.6 0 44.8 6.4 64 19.2V0c0-32-32-64-64-64z m64 384c0-32-32-64-64-64H128c-32 0-64 32-64 64V576c0 32 32 64 64 64h768c32 0 64-32 64-64v-256z"  horiz-adv-x="1024" />

    
    <glyph glyph-name="jiguangtuisong" unicode="&#58914;" d="M217.6 17.088l68.288 68.288C435.2-29.888 648.512-21.376 785.088 115.2c85.312 85.312 119.424 200.576 106.688 311.488l81.024 81.024c42.688-157.824 0-332.8-123.776-456.512C678.4-123.776 405.312-136.512 217.6 17.088zM59.776 260.224A471.68 471.68 0 0 0 183.488 716.8C358.4 891.712 631.488 900.288 819.2 746.624l-68.224-64C601.6 797.888 388.288 789.312 251.776 652.8 166.4 567.488 132.288 452.288 145.088 341.376l-85.312-81.152zM486.4 281.6l332.8 332.8h132.288L618.624 281.6H486.4zM85.312 149.376l332.8 332.736H550.4L217.6 149.376H85.312z"  horiz-adv-x="1024" />

    


  </font>
</defs>
</svg>
